<mxfile host="app.diagrams.net" agent="Mozilla/5.0 (Windows NT 10.0; Win64; x64) AppleWebKit/537.36 (KHTML, like Gecko) Chrome/131.0.0.0 Safari/537.36" version="25.0.3">
  <diagram name="1 oldal" id="Fjxdunjmp8DgUcMWZoIk">
    <mxGraphModel dx="1434" dy="780" grid="1" gridSize="10" guides="1" tooltips="1" connect="1" arrows="1" fold="1" page="1" pageScale="1" pageWidth="827" pageHeight="1169" math="0" shadow="0">
      <root>
        <mxCell id="0" />
        <mxCell id="1" parent="0" />
        <mxCell id="mXAfhrkpqj_Ubnn9QS3i-7" style="rounded=0;orthogonalLoop=1;jettySize=auto;html=1;exitX=0.5;exitY=1;exitDx=0;exitDy=0;entryX=0.5;entryY=0;entryDx=0;entryDy=0;strokeColor=none;" edge="1" parent="1" source="mXAfhrkpqj_Ubnn9QS3i-1" target="mXAfhrkpqj_Ubnn9QS3i-2">
          <mxGeometry relative="1" as="geometry" />
        </mxCell>
        <mxCell id="mXAfhrkpqj_Ubnn9QS3i-8" style="edgeStyle=orthogonalEdgeStyle;rounded=0;orthogonalLoop=1;jettySize=auto;html=1;exitX=0.5;exitY=1;exitDx=0;exitDy=0;strokeWidth=1;endArrow=none;endFill=0;" edge="1" parent="1" source="mXAfhrkpqj_Ubnn9QS3i-1">
          <mxGeometry relative="1" as="geometry">
            <mxPoint x="430" y="270" as="targetPoint" />
          </mxGeometry>
        </mxCell>
        <mxCell id="mXAfhrkpqj_Ubnn9QS3i-1" value="orarend" style="ellipse;whiteSpace=wrap;html=1;" vertex="1" parent="1">
          <mxGeometry x="370" y="170" width="120" height="80" as="geometry" />
        </mxCell>
        <mxCell id="mXAfhrkpqj_Ubnn9QS3i-10" style="edgeStyle=orthogonalEdgeStyle;rounded=0;orthogonalLoop=1;jettySize=auto;html=1;exitX=1;exitY=0.5;exitDx=0;exitDy=0;entryX=0;entryY=0.5;entryDx=0;entryDy=0;endArrow=none;endFill=0;" edge="1" parent="1" source="mXAfhrkpqj_Ubnn9QS3i-2" target="mXAfhrkpqj_Ubnn9QS3i-5">
          <mxGeometry relative="1" as="geometry" />
        </mxCell>
        <mxCell id="mXAfhrkpqj_Ubnn9QS3i-18" style="edgeStyle=orthogonalEdgeStyle;rounded=0;orthogonalLoop=1;jettySize=auto;html=1;exitX=0.5;exitY=1;exitDx=0;exitDy=0;entryX=0.5;entryY=0;entryDx=0;entryDy=0;endArrow=none;endFill=0;" edge="1" parent="1" source="mXAfhrkpqj_Ubnn9QS3i-2" target="mXAfhrkpqj_Ubnn9QS3i-3">
          <mxGeometry relative="1" as="geometry">
            <Array as="points">
              <mxPoint x="430" y="360" />
              <mxPoint x="60" y="360" />
            </Array>
          </mxGeometry>
        </mxCell>
        <mxCell id="mXAfhrkpqj_Ubnn9QS3i-19" style="edgeStyle=orthogonalEdgeStyle;rounded=0;orthogonalLoop=1;jettySize=auto;html=1;exitX=0.5;exitY=1;exitDx=0;exitDy=0;entryX=0.5;entryY=0;entryDx=0;entryDy=0;endArrow=none;endFill=0;" edge="1" parent="1" source="mXAfhrkpqj_Ubnn9QS3i-2" target="mXAfhrkpqj_Ubnn9QS3i-11">
          <mxGeometry relative="1" as="geometry">
            <Array as="points">
              <mxPoint x="430" y="360" />
              <mxPoint x="250" y="360" />
            </Array>
          </mxGeometry>
        </mxCell>
        <mxCell id="mXAfhrkpqj_Ubnn9QS3i-20" style="edgeStyle=orthogonalEdgeStyle;rounded=0;orthogonalLoop=1;jettySize=auto;html=1;exitX=0.5;exitY=1;exitDx=0;exitDy=0;entryX=0.5;entryY=0;entryDx=0;entryDy=0;endArrow=none;endFill=0;" edge="1" parent="1" source="mXAfhrkpqj_Ubnn9QS3i-2" target="mXAfhrkpqj_Ubnn9QS3i-12">
          <mxGeometry relative="1" as="geometry" />
        </mxCell>
        <mxCell id="mXAfhrkpqj_Ubnn9QS3i-21" style="edgeStyle=orthogonalEdgeStyle;rounded=0;orthogonalLoop=1;jettySize=auto;html=1;exitX=0.5;exitY=1;exitDx=0;exitDy=0;entryX=0.5;entryY=0;entryDx=0;entryDy=0;endArrow=none;endFill=0;" edge="1" parent="1" source="mXAfhrkpqj_Ubnn9QS3i-2" target="mXAfhrkpqj_Ubnn9QS3i-13">
          <mxGeometry relative="1" as="geometry">
            <Array as="points">
              <mxPoint x="430" y="360" />
              <mxPoint x="600" y="360" />
            </Array>
          </mxGeometry>
        </mxCell>
        <mxCell id="mXAfhrkpqj_Ubnn9QS3i-22" style="edgeStyle=orthogonalEdgeStyle;rounded=0;orthogonalLoop=1;jettySize=auto;html=1;exitX=0.5;exitY=1;exitDx=0;exitDy=0;entryX=0.5;entryY=0;entryDx=0;entryDy=0;endArrow=none;endFill=0;" edge="1" parent="1" source="mXAfhrkpqj_Ubnn9QS3i-2" target="mXAfhrkpqj_Ubnn9QS3i-14">
          <mxGeometry relative="1" as="geometry">
            <Array as="points">
              <mxPoint x="430" y="360" />
              <mxPoint x="767" y="360" />
            </Array>
          </mxGeometry>
        </mxCell>
        <mxCell id="mXAfhrkpqj_Ubnn9QS3i-2" value="ora" style="ellipse;whiteSpace=wrap;html=1;" vertex="1" parent="1">
          <mxGeometry x="370" y="270" width="120" height="80" as="geometry" />
        </mxCell>
        <mxCell id="mXAfhrkpqj_Ubnn9QS3i-27" style="edgeStyle=orthogonalEdgeStyle;rounded=0;orthogonalLoop=1;jettySize=auto;html=1;exitX=0.5;exitY=1;exitDx=0;exitDy=0;entryX=1;entryY=0.5;entryDx=0;entryDy=0;endArrow=none;endFill=0;" edge="1" parent="1" source="mXAfhrkpqj_Ubnn9QS3i-3" target="mXAfhrkpqj_Ubnn9QS3i-26">
          <mxGeometry relative="1" as="geometry" />
        </mxCell>
        <mxCell id="mXAfhrkpqj_Ubnn9QS3i-3" value="targy" style="ellipse;whiteSpace=wrap;html=1;" vertex="1" parent="1">
          <mxGeometry y="380" width="120" height="80" as="geometry" />
        </mxCell>
        <mxCell id="mXAfhrkpqj_Ubnn9QS3i-9" style="edgeStyle=orthogonalEdgeStyle;rounded=0;orthogonalLoop=1;jettySize=auto;html=1;exitX=1;exitY=0.5;exitDx=0;exitDy=0;entryX=0;entryY=0.5;entryDx=0;entryDy=0;endArrow=none;endFill=0;" edge="1" parent="1" source="mXAfhrkpqj_Ubnn9QS3i-4" target="mXAfhrkpqj_Ubnn9QS3i-2">
          <mxGeometry relative="1" as="geometry" />
        </mxCell>
        <mxCell id="mXAfhrkpqj_Ubnn9QS3i-4" value="id" style="rhombus;whiteSpace=wrap;html=1;fontStyle=4" vertex="1" parent="1">
          <mxGeometry x="270" y="270" width="80" height="80" as="geometry" />
        </mxCell>
        <mxCell id="mXAfhrkpqj_Ubnn9QS3i-5" value="tipus" style="rhombus;whiteSpace=wrap;html=1;" vertex="1" parent="1">
          <mxGeometry x="510" y="270" width="80" height="80" as="geometry" />
        </mxCell>
        <mxCell id="mXAfhrkpqj_Ubnn9QS3i-28" style="edgeStyle=orthogonalEdgeStyle;rounded=0;orthogonalLoop=1;jettySize=auto;html=1;exitX=0;exitY=1;exitDx=0;exitDy=0;entryX=0.5;entryY=0;entryDx=0;entryDy=0;endArrow=none;endFill=0;" edge="1" parent="1" source="mXAfhrkpqj_Ubnn9QS3i-11" target="mXAfhrkpqj_Ubnn9QS3i-15">
          <mxGeometry relative="1" as="geometry">
            <Array as="points">
              <mxPoint x="208" y="470" />
              <mxPoint x="160" y="470" />
            </Array>
          </mxGeometry>
        </mxCell>
        <mxCell id="mXAfhrkpqj_Ubnn9QS3i-29" style="edgeStyle=orthogonalEdgeStyle;rounded=0;orthogonalLoop=1;jettySize=auto;html=1;exitX=0.5;exitY=1;exitDx=0;exitDy=0;entryX=0.5;entryY=0;entryDx=0;entryDy=0;endArrow=none;endFill=0;" edge="1" parent="1" source="mXAfhrkpqj_Ubnn9QS3i-11" target="mXAfhrkpqj_Ubnn9QS3i-16">
          <mxGeometry relative="1" as="geometry" />
        </mxCell>
        <mxCell id="mXAfhrkpqj_Ubnn9QS3i-30" style="edgeStyle=orthogonalEdgeStyle;rounded=0;orthogonalLoop=1;jettySize=auto;html=1;exitX=1;exitY=1;exitDx=0;exitDy=0;entryX=0.5;entryY=0;entryDx=0;entryDy=0;endArrow=none;endFill=0;" edge="1" parent="1" source="mXAfhrkpqj_Ubnn9QS3i-11" target="mXAfhrkpqj_Ubnn9QS3i-17">
          <mxGeometry relative="1" as="geometry">
            <Array as="points">
              <mxPoint x="292" y="470" />
              <mxPoint x="340" y="470" />
            </Array>
          </mxGeometry>
        </mxCell>
        <mxCell id="mXAfhrkpqj_Ubnn9QS3i-11" value="idopont" style="ellipse;whiteSpace=wrap;html=1;" vertex="1" parent="1">
          <mxGeometry x="190" y="380" width="120" height="80" as="geometry" />
        </mxCell>
        <mxCell id="mXAfhrkpqj_Ubnn9QS3i-40" style="edgeStyle=orthogonalEdgeStyle;rounded=0;orthogonalLoop=1;jettySize=auto;html=1;exitX=0.5;exitY=1;exitDx=0;exitDy=0;entryX=1;entryY=0.5;entryDx=0;entryDy=0;endArrow=none;endFill=0;" edge="1" parent="1" source="mXAfhrkpqj_Ubnn9QS3i-12" target="mXAfhrkpqj_Ubnn9QS3i-39">
          <mxGeometry relative="1" as="geometry" />
        </mxCell>
        <mxCell id="mXAfhrkpqj_Ubnn9QS3i-12" value="helyszin" style="ellipse;whiteSpace=wrap;html=1;" vertex="1" parent="1">
          <mxGeometry x="370" y="380" width="120" height="80" as="geometry" />
        </mxCell>
        <mxCell id="mXAfhrkpqj_Ubnn9QS3i-42" style="edgeStyle=orthogonalEdgeStyle;rounded=0;orthogonalLoop=1;jettySize=auto;html=1;exitX=0.5;exitY=1;exitDx=0;exitDy=0;endArrow=none;endFill=0;" edge="1" parent="1" source="mXAfhrkpqj_Ubnn9QS3i-13" target="mXAfhrkpqj_Ubnn9QS3i-41">
          <mxGeometry relative="1" as="geometry" />
        </mxCell>
        <mxCell id="mXAfhrkpqj_Ubnn9QS3i-13" value="oktato" style="ellipse;whiteSpace=wrap;html=1;" vertex="1" parent="1">
          <mxGeometry x="540" y="380" width="120" height="80" as="geometry" />
        </mxCell>
        <mxCell id="mXAfhrkpqj_Ubnn9QS3i-44" style="edgeStyle=orthogonalEdgeStyle;rounded=0;orthogonalLoop=1;jettySize=auto;html=1;exitX=0.5;exitY=1;exitDx=0;exitDy=0;entryX=1;entryY=0.5;entryDx=0;entryDy=0;endArrow=none;endFill=0;" edge="1" parent="1" source="mXAfhrkpqj_Ubnn9QS3i-14" target="mXAfhrkpqj_Ubnn9QS3i-43">
          <mxGeometry relative="1" as="geometry" />
        </mxCell>
        <mxCell id="mXAfhrkpqj_Ubnn9QS3i-14" value="szak" style="ellipse;whiteSpace=wrap;html=1;" vertex="1" parent="1">
          <mxGeometry x="707" y="380" width="120" height="80" as="geometry" />
        </mxCell>
        <mxCell id="mXAfhrkpqj_Ubnn9QS3i-36" style="edgeStyle=orthogonalEdgeStyle;rounded=0;orthogonalLoop=1;jettySize=auto;html=1;exitX=0.5;exitY=1;exitDx=0;exitDy=0;entryX=1;entryY=0.5;entryDx=0;entryDy=0;endArrow=none;endFill=0;" edge="1" parent="1" source="mXAfhrkpqj_Ubnn9QS3i-15" target="mXAfhrkpqj_Ubnn9QS3i-33">
          <mxGeometry relative="1" as="geometry" />
        </mxCell>
        <mxCell id="mXAfhrkpqj_Ubnn9QS3i-15" value="nap" style="ellipse;whiteSpace=wrap;html=1;" vertex="1" parent="1">
          <mxGeometry x="100" y="490" width="120" height="80" as="geometry" />
        </mxCell>
        <mxCell id="mXAfhrkpqj_Ubnn9QS3i-38" style="edgeStyle=orthogonalEdgeStyle;rounded=0;orthogonalLoop=1;jettySize=auto;html=1;exitX=0.5;exitY=1;exitDx=0;exitDy=0;entryX=1;entryY=0.5;entryDx=0;entryDy=0;endArrow=none;endFill=0;" edge="1" parent="1" source="mXAfhrkpqj_Ubnn9QS3i-16" target="mXAfhrkpqj_Ubnn9QS3i-34">
          <mxGeometry relative="1" as="geometry" />
        </mxCell>
        <mxCell id="mXAfhrkpqj_Ubnn9QS3i-16" value="tol" style="ellipse;whiteSpace=wrap;html=1;" vertex="1" parent="1">
          <mxGeometry x="190" y="580" width="120" height="80" as="geometry" />
        </mxCell>
        <mxCell id="mXAfhrkpqj_Ubnn9QS3i-37" style="edgeStyle=orthogonalEdgeStyle;rounded=0;orthogonalLoop=1;jettySize=auto;html=1;exitX=0.5;exitY=1;exitDx=0;exitDy=0;entryX=1;entryY=0.5;entryDx=0;entryDy=0;endArrow=none;endFill=0;" edge="1" parent="1" source="mXAfhrkpqj_Ubnn9QS3i-17" target="mXAfhrkpqj_Ubnn9QS3i-35">
          <mxGeometry relative="1" as="geometry" />
        </mxCell>
        <mxCell id="mXAfhrkpqj_Ubnn9QS3i-17" value="ig" style="ellipse;whiteSpace=wrap;html=1;" vertex="1" parent="1">
          <mxGeometry x="280" y="490" width="120" height="80" as="geometry" />
        </mxCell>
        <mxCell id="mXAfhrkpqj_Ubnn9QS3i-26" value="" style="rounded=0;whiteSpace=wrap;html=1;rotation=-90;" vertex="1" parent="1">
          <mxGeometry x="25" y="490" width="70" height="45" as="geometry" />
        </mxCell>
        <mxCell id="mXAfhrkpqj_Ubnn9QS3i-31" style="edgeStyle=orthogonalEdgeStyle;rounded=0;orthogonalLoop=1;jettySize=auto;html=1;exitX=0;exitY=0.5;exitDx=0;exitDy=0;" edge="1" parent="1" source="mXAfhrkpqj_Ubnn9QS3i-26" target="mXAfhrkpqj_Ubnn9QS3i-26">
          <mxGeometry relative="1" as="geometry" />
        </mxCell>
        <mxCell id="mXAfhrkpqj_Ubnn9QS3i-33" value="" style="rounded=0;whiteSpace=wrap;html=1;rotation=-90;" vertex="1" parent="1">
          <mxGeometry x="125" y="597.5" width="70" height="45" as="geometry" />
        </mxCell>
        <mxCell id="mXAfhrkpqj_Ubnn9QS3i-34" value="" style="rounded=0;whiteSpace=wrap;html=1;rotation=-90;" vertex="1" parent="1">
          <mxGeometry x="215" y="690" width="70" height="45" as="geometry" />
        </mxCell>
        <mxCell id="mXAfhrkpqj_Ubnn9QS3i-35" value="" style="rounded=0;whiteSpace=wrap;html=1;rotation=-90;" vertex="1" parent="1">
          <mxGeometry x="305" y="597.5" width="70" height="45" as="geometry" />
        </mxCell>
        <mxCell id="mXAfhrkpqj_Ubnn9QS3i-39" value="" style="rounded=0;whiteSpace=wrap;html=1;rotation=-90;" vertex="1" parent="1">
          <mxGeometry x="395" y="490" width="70" height="45" as="geometry" />
        </mxCell>
        <mxCell id="mXAfhrkpqj_Ubnn9QS3i-41" value="" style="rounded=0;whiteSpace=wrap;html=1;rotation=-90;" vertex="1" parent="1">
          <mxGeometry x="565" y="490" width="70" height="45" as="geometry" />
        </mxCell>
        <mxCell id="mXAfhrkpqj_Ubnn9QS3i-43" value="" style="rounded=0;whiteSpace=wrap;html=1;rotation=-90;" vertex="1" parent="1">
          <mxGeometry x="732" y="490" width="70" height="45" as="geometry" />
        </mxCell>
      </root>
    </mxGraphModel>
  </diagram>
</mxfile>
